<mxfile host="app.diagrams.net" agent="Mozilla/5.0 (Windows NT 10.0; Win64; x64) AppleWebKit/537.36 (KHTML, like Gecko) Chrome/138.0.0.0 Safari/537.36" version="28.0.7">
  <diagram name="Page-1" id="GBEgA9Fs7znUqy_Ec8DS">
    <mxGraphModel dx="834" dy="450" grid="1" gridSize="10" guides="1" tooltips="1" connect="1" arrows="1" fold="1" page="1" pageScale="1" pageWidth="850" pageHeight="1100" math="0" shadow="0">
      <root>
        <mxCell id="0" />
        <mxCell id="1" parent="0" />
        <mxCell id="cDpEIVbiR37QDBm39IVA-1" value="&lt;font style=&quot;font-size: 14px;&quot;&gt;Students&lt;/font&gt;" style="shape=umlActor;verticalLabelPosition=bottom;verticalAlign=top;html=1;outlineConnect=0;" vertex="1" parent="1">
          <mxGeometry x="90" y="210" width="40" height="80" as="geometry" />
        </mxCell>
        <mxCell id="cDpEIVbiR37QDBm39IVA-7" value="&lt;font style=&quot;font-size: 14px;&quot;&gt;Teacher&lt;/font&gt;" style="shape=umlActor;verticalLabelPosition=bottom;verticalAlign=top;html=1;outlineConnect=0;" vertex="1" parent="1">
          <mxGeometry x="730" y="140" width="40" height="80" as="geometry" />
        </mxCell>
        <mxCell id="cDpEIVbiR37QDBm39IVA-8" value="&lt;font style=&quot;font-size: 14px;&quot;&gt;Admin&lt;/font&gt;" style="shape=umlActor;verticalLabelPosition=bottom;verticalAlign=top;html=1;outlineConnect=0;" vertex="1" parent="1">
          <mxGeometry x="730" y="360" width="40" height="80" as="geometry" />
        </mxCell>
        <mxCell id="cDpEIVbiR37QDBm39IVA-13" value="&lt;font style=&quot;font-size: 13px;&quot;&gt;Register/&lt;/font&gt;&lt;div&gt;&lt;font style=&quot;font-size: 13px;&quot;&gt;Login&lt;/font&gt;&lt;/div&gt;" style="ellipse;whiteSpace=wrap;html=1;" vertex="1" parent="1">
          <mxGeometry x="220" y="140" width="80" height="40" as="geometry" />
        </mxCell>
        <mxCell id="cDpEIVbiR37QDBm39IVA-14" value="&lt;font style=&quot;font-size: 13px;&quot;&gt;Take Quiz&lt;/font&gt;" style="ellipse;whiteSpace=wrap;html=1;" vertex="1" parent="1">
          <mxGeometry x="220" y="200" width="80" height="40" as="geometry" />
        </mxCell>
        <mxCell id="cDpEIVbiR37QDBm39IVA-15" value="View&lt;div&gt;Dashboard&lt;/div&gt;" style="ellipse;whiteSpace=wrap;html=1;" vertex="1" parent="1">
          <mxGeometry x="220" y="260" width="90" height="40" as="geometry" />
        </mxCell>
        <mxCell id="cDpEIVbiR37QDBm39IVA-16" value="View&lt;div&gt;Result&lt;/div&gt;" style="ellipse;whiteSpace=wrap;html=1;" vertex="1" parent="1">
          <mxGeometry x="220" y="320" width="80" height="40" as="geometry" />
        </mxCell>
        <mxCell id="cDpEIVbiR37QDBm39IVA-35" value="" style="swimlane;startSize=0;" vertex="1" parent="1">
          <mxGeometry x="160" y="50" width="530" height="460" as="geometry" />
        </mxCell>
        <mxCell id="cDpEIVbiR37QDBm39IVA-36" value="&lt;font style=&quot;font-size: 14px;&quot;&gt;Use Case for Quiz Management&lt;/font&gt;" style="text;html=1;align=center;verticalAlign=middle;whiteSpace=wrap;rounded=0;" vertex="1" parent="cDpEIVbiR37QDBm39IVA-35">
          <mxGeometry x="100" width="350" height="30" as="geometry" />
        </mxCell>
        <mxCell id="cDpEIVbiR37QDBm39IVA-37" value="Submit Quiz" style="ellipse;whiteSpace=wrap;html=1;" vertex="1" parent="cDpEIVbiR37QDBm39IVA-35">
          <mxGeometry x="170" y="120" width="70" height="40" as="geometry" />
        </mxCell>
        <mxCell id="cDpEIVbiR37QDBm39IVA-38" value="Track&amp;nbsp;&lt;div&gt;Progress&lt;/div&gt;" style="ellipse;whiteSpace=wrap;html=1;" vertex="1" parent="cDpEIVbiR37QDBm39IVA-35">
          <mxGeometry x="180" y="230" width="70" height="40" as="geometry" />
        </mxCell>
        <mxCell id="cDpEIVbiR37QDBm39IVA-39" value="Download Report" style="ellipse;whiteSpace=wrap;html=1;" vertex="1" parent="cDpEIVbiR37QDBm39IVA-35">
          <mxGeometry x="170" y="305" width="70" height="40" as="geometry" />
        </mxCell>
        <mxCell id="cDpEIVbiR37QDBm39IVA-44" value="Add Question" style="ellipse;whiteSpace=wrap;html=1;" vertex="1" parent="cDpEIVbiR37QDBm39IVA-35">
          <mxGeometry x="250" y="145" width="70" height="40" as="geometry" />
        </mxCell>
        <mxCell id="cDpEIVbiR37QDBm39IVA-17" value="Register/&lt;div&gt;Login&lt;/div&gt;" style="ellipse;whiteSpace=wrap;html=1;" vertex="1" parent="cDpEIVbiR37QDBm39IVA-35">
          <mxGeometry x="400" y="35" width="80" height="40" as="geometry" />
        </mxCell>
        <mxCell id="cDpEIVbiR37QDBm39IVA-18" value="Create/Update/&lt;div&gt;&lt;span style=&quot;background-color: transparent; color: light-dark(rgb(0, 0, 0), rgb(255, 255, 255));&quot;&gt;Delete Quiz&lt;/span&gt;&lt;/div&gt;" style="ellipse;whiteSpace=wrap;html=1;" vertex="1" parent="cDpEIVbiR37QDBm39IVA-35">
          <mxGeometry x="370" y="85" width="110" height="40" as="geometry" />
        </mxCell>
        <mxCell id="cDpEIVbiR37QDBm39IVA-19" value="View Student&lt;div&gt;Result&lt;/div&gt;" style="ellipse;whiteSpace=wrap;html=1;" vertex="1" parent="cDpEIVbiR37QDBm39IVA-35">
          <mxGeometry x="380" y="135" width="100" height="40" as="geometry" />
        </mxCell>
        <mxCell id="cDpEIVbiR37QDBm39IVA-20" value="Track Student Result" style="ellipse;whiteSpace=wrap;html=1;" vertex="1" parent="cDpEIVbiR37QDBm39IVA-35">
          <mxGeometry x="380" y="185" width="100" height="40" as="geometry" />
        </mxCell>
        <mxCell id="cDpEIVbiR37QDBm39IVA-23" value="Login&lt;span style=&quot;color: rgba(0, 0, 0, 0); font-family: monospace; font-size: 0px; text-align: start; text-wrap-mode: nowrap;&quot;&gt;%3CmxGraphModel%3E%3Croot%3E%3CmxCell%20id%3D%220%22%2F%3E%3CmxCell%20id%3D%221%22%20parent%3D%220%22%2F%3E%3CmxCell%20id%3D%222%22%20value%3D%22Register%2F%26lt%3Bdiv%26gt%3BLogin%26lt%3B%2Fdiv%26gt%3B%22%20style%3D%22ellipse%3BwhiteSpace%3Dwrap%3Bhtml%3D1%3B%22%20vertex%3D%221%22%20parent%3D%221%22%3E%3CmxGeometry%20x%3D%22220%22%20y%3D%22140%22%20width%3D%2280%22%20height%3D%2240%22%20as%3D%22geometry%22%2F%3E%3C%2FmxCell%3E%3C%2Froot%3E%3C%2FmxGraphModel%3E&lt;/span&gt;" style="ellipse;whiteSpace=wrap;html=1;" vertex="1" parent="cDpEIVbiR37QDBm39IVA-35">
          <mxGeometry x="390" y="265" width="80" height="40" as="geometry" />
        </mxCell>
        <mxCell id="cDpEIVbiR37QDBm39IVA-24" value="Manage Users" style="ellipse;whiteSpace=wrap;html=1;" vertex="1" parent="cDpEIVbiR37QDBm39IVA-35">
          <mxGeometry x="390" y="315" width="80" height="40" as="geometry" />
        </mxCell>
        <mxCell id="cDpEIVbiR37QDBm39IVA-25" value="Manage&amp;nbsp;&lt;div&gt;Quizzes&lt;/div&gt;" style="ellipse;whiteSpace=wrap;html=1;" vertex="1" parent="cDpEIVbiR37QDBm39IVA-35">
          <mxGeometry x="385" y="365" width="90" height="40" as="geometry" />
        </mxCell>
        <mxCell id="cDpEIVbiR37QDBm39IVA-26" value="Add/Delete&lt;div&gt;User&lt;/div&gt;" style="ellipse;whiteSpace=wrap;html=1;" vertex="1" parent="cDpEIVbiR37QDBm39IVA-35">
          <mxGeometry x="270" y="315" width="70" height="40" as="geometry" />
        </mxCell>
        <mxCell id="cDpEIVbiR37QDBm39IVA-31" value="" style="endArrow=classic;html=1;rounded=0;exitX=0;exitY=1;exitDx=0;exitDy=0;entryX=1;entryY=1;entryDx=0;entryDy=0;" edge="1" parent="cDpEIVbiR37QDBm39IVA-35" source="cDpEIVbiR37QDBm39IVA-24" target="cDpEIVbiR37QDBm39IVA-26">
          <mxGeometry width="50" height="50" relative="1" as="geometry">
            <mxPoint x="290" y="275" as="sourcePoint" />
            <mxPoint x="340" y="225" as="targetPoint" />
          </mxGeometry>
        </mxCell>
        <mxCell id="cDpEIVbiR37QDBm39IVA-32" value="Add/Delete&lt;div&gt;User&lt;/div&gt;" style="ellipse;whiteSpace=wrap;html=1;" vertex="1" parent="cDpEIVbiR37QDBm39IVA-35">
          <mxGeometry x="280" y="385" width="70" height="40" as="geometry" />
        </mxCell>
        <mxCell id="cDpEIVbiR37QDBm39IVA-33" value="" style="endArrow=classic;html=1;rounded=0;exitX=1;exitY=0.5;exitDx=0;exitDy=0;entryX=0.367;entryY=0.996;entryDx=0;entryDy=0;entryPerimeter=0;" edge="1" parent="cDpEIVbiR37QDBm39IVA-35" source="cDpEIVbiR37QDBm39IVA-32" target="cDpEIVbiR37QDBm39IVA-25">
          <mxGeometry width="50" height="50" relative="1" as="geometry">
            <mxPoint x="290" y="275" as="sourcePoint" />
            <mxPoint x="340" y="225" as="targetPoint" />
          </mxGeometry>
        </mxCell>
        <mxCell id="cDpEIVbiR37QDBm39IVA-45" value="" style="endArrow=classic;html=1;rounded=0;exitX=1;exitY=0;exitDx=0;exitDy=0;entryX=0;entryY=1;entryDx=0;entryDy=0;" edge="1" parent="cDpEIVbiR37QDBm39IVA-35" source="cDpEIVbiR37QDBm39IVA-44" target="cDpEIVbiR37QDBm39IVA-18">
          <mxGeometry width="50" height="50" relative="1" as="geometry">
            <mxPoint x="354.748737341529" y="180.85786437626894" as="sourcePoint" />
            <mxPoint x="340" y="225" as="targetPoint" />
          </mxGeometry>
        </mxCell>
        <mxCell id="cDpEIVbiR37QDBm39IVA-46" value="" style="endArrow=none;html=1;rounded=0;exitX=1;exitY=0.5;exitDx=0;exitDy=0;" edge="1" parent="cDpEIVbiR37QDBm39IVA-35" source="cDpEIVbiR37QDBm39IVA-17">
          <mxGeometry width="50" height="50" relative="1" as="geometry">
            <mxPoint x="130" y="220" as="sourcePoint" />
            <mxPoint x="530" y="130" as="targetPoint" />
          </mxGeometry>
        </mxCell>
        <mxCell id="cDpEIVbiR37QDBm39IVA-48" value="" style="endArrow=none;html=1;rounded=0;entryX=0.999;entryY=0.284;entryDx=0;entryDy=0;entryPerimeter=0;exitX=1;exitY=0.5;exitDx=0;exitDy=0;" edge="1" parent="cDpEIVbiR37QDBm39IVA-35" source="cDpEIVbiR37QDBm39IVA-19" target="cDpEIVbiR37QDBm39IVA-35">
          <mxGeometry width="50" height="50" relative="1" as="geometry">
            <mxPoint x="470" y="200" as="sourcePoint" />
            <mxPoint x="520" y="150" as="targetPoint" />
          </mxGeometry>
        </mxCell>
        <mxCell id="cDpEIVbiR37QDBm39IVA-49" value="" style="endArrow=none;html=1;rounded=0;entryX=0.999;entryY=0.283;entryDx=0;entryDy=0;entryPerimeter=0;exitX=0.959;exitY=0.309;exitDx=0;exitDy=0;exitPerimeter=0;" edge="1" parent="cDpEIVbiR37QDBm39IVA-35" source="cDpEIVbiR37QDBm39IVA-20" target="cDpEIVbiR37QDBm39IVA-35">
          <mxGeometry width="50" height="50" relative="1" as="geometry">
            <mxPoint x="470" y="190" as="sourcePoint" />
            <mxPoint x="520" y="150" as="targetPoint" />
          </mxGeometry>
        </mxCell>
        <mxCell id="cDpEIVbiR37QDBm39IVA-50" value="" style="endArrow=none;html=1;rounded=0;entryX=1;entryY=0.706;entryDx=0;entryDy=0;entryPerimeter=0;exitX=0.966;exitY=0.692;exitDx=0;exitDy=0;exitPerimeter=0;" edge="1" parent="cDpEIVbiR37QDBm39IVA-35" source="cDpEIVbiR37QDBm39IVA-23" target="cDpEIVbiR37QDBm39IVA-35">
          <mxGeometry width="50" height="50" relative="1" as="geometry">
            <mxPoint x="430" y="340" as="sourcePoint" />
            <mxPoint x="480" y="290" as="targetPoint" />
          </mxGeometry>
        </mxCell>
        <mxCell id="cDpEIVbiR37QDBm39IVA-51" value="" style="endArrow=none;html=1;rounded=0;entryX=0.999;entryY=0.705;entryDx=0;entryDy=0;entryPerimeter=0;exitX=1;exitY=0.5;exitDx=0;exitDy=0;" edge="1" parent="cDpEIVbiR37QDBm39IVA-35" source="cDpEIVbiR37QDBm39IVA-24" target="cDpEIVbiR37QDBm39IVA-35">
          <mxGeometry width="50" height="50" relative="1" as="geometry">
            <mxPoint x="430" y="340" as="sourcePoint" />
            <mxPoint x="480" y="290" as="targetPoint" />
          </mxGeometry>
        </mxCell>
        <mxCell id="cDpEIVbiR37QDBm39IVA-52" value="" style="endArrow=none;html=1;rounded=0;entryX=1;entryY=0.707;entryDx=0;entryDy=0;entryPerimeter=0;exitX=1;exitY=0.5;exitDx=0;exitDy=0;" edge="1" parent="cDpEIVbiR37QDBm39IVA-35" source="cDpEIVbiR37QDBm39IVA-25" target="cDpEIVbiR37QDBm39IVA-35">
          <mxGeometry width="50" height="50" relative="1" as="geometry">
            <mxPoint x="430" y="410" as="sourcePoint" />
            <mxPoint x="480" y="360" as="targetPoint" />
          </mxGeometry>
        </mxCell>
        <mxCell id="cDpEIVbiR37QDBm39IVA-40" value="" style="endArrow=classic;html=1;rounded=0;entryX=1;entryY=0.5;entryDx=0;entryDy=0;exitX=0.5;exitY=1;exitDx=0;exitDy=0;" edge="1" parent="1" source="cDpEIVbiR37QDBm39IVA-37" target="cDpEIVbiR37QDBm39IVA-14">
          <mxGeometry width="50" height="50" relative="1" as="geometry">
            <mxPoint x="330" y="320" as="sourcePoint" />
            <mxPoint x="380" y="270" as="targetPoint" />
          </mxGeometry>
        </mxCell>
        <mxCell id="cDpEIVbiR37QDBm39IVA-41" value="" style="endArrow=classic;html=1;rounded=0;exitX=1;exitY=1;exitDx=0;exitDy=0;entryX=0;entryY=1;entryDx=0;entryDy=0;" edge="1" parent="1" source="cDpEIVbiR37QDBm39IVA-15" target="cDpEIVbiR37QDBm39IVA-38">
          <mxGeometry width="50" height="50" relative="1" as="geometry">
            <mxPoint x="330" y="320" as="sourcePoint" />
            <mxPoint x="380" y="270" as="targetPoint" />
          </mxGeometry>
        </mxCell>
        <mxCell id="cDpEIVbiR37QDBm39IVA-43" value="" style="endArrow=classic;html=1;rounded=0;exitX=1;exitY=1;exitDx=0;exitDy=0;entryX=0;entryY=1;entryDx=0;entryDy=0;" edge="1" parent="1" source="cDpEIVbiR37QDBm39IVA-16" target="cDpEIVbiR37QDBm39IVA-39">
          <mxGeometry width="50" height="50" relative="1" as="geometry">
            <mxPoint x="330" y="320" as="sourcePoint" />
            <mxPoint x="380" y="270" as="targetPoint" />
          </mxGeometry>
        </mxCell>
        <mxCell id="cDpEIVbiR37QDBm39IVA-47" value="" style="endArrow=none;html=1;rounded=0;exitX=0.95;exitY=0.702;exitDx=0;exitDy=0;exitPerimeter=0;" edge="1" parent="1" source="cDpEIVbiR37QDBm39IVA-18">
          <mxGeometry width="50" height="50" relative="1" as="geometry">
            <mxPoint x="290" y="270" as="sourcePoint" />
            <mxPoint x="690" y="180" as="targetPoint" />
          </mxGeometry>
        </mxCell>
        <mxCell id="cDpEIVbiR37QDBm39IVA-53" value="" style="endArrow=none;html=1;rounded=0;exitX=0.001;exitY=0.435;exitDx=0;exitDy=0;exitPerimeter=0;entryX=0;entryY=1;entryDx=0;entryDy=0;" edge="1" parent="1" source="cDpEIVbiR37QDBm39IVA-35" target="cDpEIVbiR37QDBm39IVA-13">
          <mxGeometry width="50" height="50" relative="1" as="geometry">
            <mxPoint x="260" y="260" as="sourcePoint" />
            <mxPoint x="310" y="210" as="targetPoint" />
          </mxGeometry>
        </mxCell>
        <mxCell id="cDpEIVbiR37QDBm39IVA-54" value="" style="endArrow=none;html=1;rounded=0;exitX=-0.001;exitY=0.435;exitDx=0;exitDy=0;exitPerimeter=0;entryX=0;entryY=1;entryDx=0;entryDy=0;" edge="1" parent="1" source="cDpEIVbiR37QDBm39IVA-35" target="cDpEIVbiR37QDBm39IVA-14">
          <mxGeometry width="50" height="50" relative="1" as="geometry">
            <mxPoint x="260" y="260" as="sourcePoint" />
            <mxPoint x="310" y="210" as="targetPoint" />
          </mxGeometry>
        </mxCell>
        <mxCell id="cDpEIVbiR37QDBm39IVA-55" value="" style="endArrow=none;html=1;rounded=0;entryX=-0.001;entryY=0.434;entryDx=0;entryDy=0;entryPerimeter=0;exitX=0;exitY=0.5;exitDx=0;exitDy=0;" edge="1" parent="1" source="cDpEIVbiR37QDBm39IVA-15" target="cDpEIVbiR37QDBm39IVA-35">
          <mxGeometry width="50" height="50" relative="1" as="geometry">
            <mxPoint x="260" y="260" as="sourcePoint" />
            <mxPoint x="310" y="210" as="targetPoint" />
          </mxGeometry>
        </mxCell>
        <mxCell id="cDpEIVbiR37QDBm39IVA-59" value="" style="endArrow=none;html=1;rounded=0;entryX=0;entryY=0;entryDx=0;entryDy=0;" edge="1" parent="1" target="cDpEIVbiR37QDBm39IVA-16">
          <mxGeometry width="50" height="50" relative="1" as="geometry">
            <mxPoint x="160" y="250" as="sourcePoint" />
            <mxPoint x="240" y="280" as="targetPoint" />
          </mxGeometry>
        </mxCell>
      </root>
    </mxGraphModel>
  </diagram>
</mxfile>
